<?xml version="1.0" encoding="UTF-8"?>
<svg version="1.1" xmlns="http://www.w3.org/2000/svg" width="512" height="512">
<path d="M0 0 C0.78117187 0.19867676 1.56234375 0.39735352 2.3671875 0.60205078 C20.27078278 5.25573063 40.89596647 12.30549917 55.109375 24.609375 C56.10453125 25.46015625 57.0996875 26.3109375 58.125 27.1875 C58.97320312 27.98542969 59.82140625 28.78335938 60.6953125 29.60546875 C66.10197234 31.88700251 70.57860952 29.68820883 76 28 C78.29473636 27.36976481 80.59169712 26.74758234 82.890625 26.1328125 C84.08300781 25.80684082 85.27539062 25.48086914 86.50390625 25.14501953 C100.90056217 21.22497076 115.32321544 17.72631946 130 15 C131.24910156 14.76539062 132.49820312 14.53078125 133.78515625 14.2890625 C157.56494448 10.37772665 184.56189585 9.36574773 205 24 C212.57502231 29.68893376 218.07175393 39.73123428 220 49 C220.91374623 59.44695518 220.81889692 69.51232757 216 79 C215.57589844 79.8971875 215.15179688 80.794375 214.71484375 81.71875 C205.13816257 100.7120564 187.02173938 117.09150093 170.01806641 129.48486328 C168.40310436 130.69735475 166.81800123 131.9495774 165.24365234 133.21435547 C159.48799215 137.81728489 153.72949951 141.87086995 147.2734375 145.4375 C133.380104 152.66515576 133.380104 152.66515576 123.42236328 164.1328125 C121.69492881 170.67597558 121.80848526 177.18837625 122.01269531 183.91113281 C121.99343532 188.5972369 121.02789752 192.86950793 119.8125 197.375 C119.60061035 198.17534668 119.3887207 198.97569336 119.17041016 199.80029297 C111.88439907 225.91424823 98.55449385 250.10930793 79 269 C78.175 269.825 77.35 270.65 76.5 271.5 C75.675 272.325 74.85 273.15 74 274 C73.55914062 274.48726563 73.11828125 274.97453125 72.6640625 275.4765625 C56.37842762 292.91955215 32.6108598 304.28165741 10.125 311.25 C9.38411133 311.48420654 8.64322266 311.71841309 7.87988281 311.9597168 C-5.90815838 316.02471118 -19.9057954 317.50830865 -34.23217773 317.39111328 C-36.56618394 317.37497453 -38.89846594 317.39111551 -41.23242188 317.41015625 C-54.83174529 317.42939995 -67.96634635 315.485074 -81.0625 311.75 C-81.80089111 311.54093018 -82.53928223 311.33186035 -83.30004883 311.11645508 C-91.19111772 308.78613301 -98.61484858 305.60378941 -106 302 C-106.63534668 301.69191406 -107.27069336 301.38382812 -107.92529297 301.06640625 C-115.96546061 297.11296498 -123.34434803 292.60593959 -130.52197266 287.23706055 C-133.02337946 285.3674829 -135.01122715 283.99625762 -138 283 C-140.53797687 283.49300374 -140.53797687 283.49300374 -143.36328125 284.40625 C-144.46285156 284.73471924 -145.56242188 285.06318848 -146.6953125 285.40161133 C-147.88898438 285.76407959 -149.08265625 286.12654785 -150.3125 286.5 C-235.59861167 311.58773953 -235.59861167 311.58773953 -269.71484375 294.65234375 C-280.77951011 288.41287024 -287.95797094 279.32808498 -291.5715332 267.05957031 C-293.7613202 256.53361984 -292.85114931 244.55117247 -288 235 C-287.57589844 234.1028125 -287.15179688 233.205625 -286.71484375 232.28125 C-277.13816257 213.2879436 -259.02173938 196.90849907 -242.01806641 184.51513672 C-240.40310436 183.30264525 -238.81800123 182.0504226 -237.24365234 180.78564453 C-231.48799215 176.18271511 -225.72949951 172.12913005 -219.2734375 168.5625 C-205.380104 161.33484424 -205.380104 161.33484424 -195.42236328 149.8671875 C-193.69492881 143.32402442 -193.80848526 136.81162375 -194.01269531 130.08886719 C-193.99343532 125.4027631 -193.02789752 121.13049207 -191.8125 116.625 C-191.60061035 115.82465332 -191.3887207 115.02430664 -191.17041016 114.19970703 C-183.88439907 88.08575177 -170.55449385 63.89069207 -151 45 C-150.175 44.175 -149.35 43.35 -148.5 42.5 C-147.675 41.675 -146.85 40.85 -146 40 C-145.33871094 39.26910156 -145.33871094 39.26910156 -144.6640625 38.5234375 C-125.90644844 18.43279503 -98.10225231 6.72475609 -72 0 C-71.31905273 -0.18079102 -70.63810547 -0.36158203 -69.93652344 -0.54785156 C-48.73284194 -5.9046832 -21.10944435 -5.58336777 0 0 Z " fill="#B100FE" transform="translate(292,99)"/>
<path d="M0 0 C0.78117187 0.19867676 1.56234375 0.39735352 2.3671875 0.60205078 C20.27078278 5.25573063 40.89596647 12.30549917 55.109375 24.609375 C56.10453125 25.46015625 57.0996875 26.3109375 58.125 27.1875 C58.97320312 27.98542969 59.82140625 28.78335938 60.6953125 29.60546875 C66.10197234 31.88700251 70.57860952 29.68820883 76 28 C78.29473636 27.36976481 80.59169712 26.74758234 82.890625 26.1328125 C84.08300781 25.80684082 85.27539062 25.48086914 86.50390625 25.14501953 C100.90056217 21.22497076 115.32321544 17.72631946 130 15 C131.24910156 14.76539062 132.49820312 14.53078125 133.78515625 14.2890625 C157.56494448 10.37772665 184.56189585 9.36574773 205 24 C212.57502231 29.68893376 218.07175393 39.73123428 220 49 C220.91374623 59.44695518 220.81889692 69.51232757 216 79 C215.57589844 79.8971875 215.15179688 80.794375 214.71484375 81.71875 C205.13816257 100.7120564 187.02173938 117.09150093 170.01806641 129.48486328 C168.40310436 130.69735475 166.81800123 131.9495774 165.24365234 133.21435547 C159.48799215 137.81728489 153.72949951 141.87086995 147.2734375 145.4375 C133.380104 152.66515576 133.380104 152.66515576 123.42236328 164.1328125 C121.69492881 170.67597558 121.80848526 177.18837625 122.01269531 183.91113281 C121.99343532 188.5972369 121.02789752 192.86950793 119.8125 197.375 C119.60061035 198.17534668 119.3887207 198.97569336 119.17041016 199.80029297 C111.88439907 225.91424823 98.55449385 250.10930793 79 269 C78.175 269.825 77.35 270.65 76.5 271.5 C75.675 272.325 74.85 273.15 74 274 C73.55914062 274.48726563 73.11828125 274.97453125 72.6640625 275.4765625 C56.37842762 292.91955215 32.6108598 304.28165741 10.125 311.25 C9.38411133 311.48420654 8.64322266 311.71841309 7.87988281 311.9597168 C-5.90815838 316.02471118 -19.9057954 317.50830865 -34.23217773 317.39111328 C-36.56618394 317.37497453 -38.89846594 317.39111551 -41.23242188 317.41015625 C-54.83174529 317.42939995 -67.96634635 315.485074 -81.0625 311.75 C-81.80089111 311.54093018 -82.53928223 311.33186035 -83.30004883 311.11645508 C-91.19111772 308.78613301 -98.61484858 305.60378941 -106 302 C-106.63534668 301.69191406 -107.27069336 301.38382812 -107.92529297 301.06640625 C-115.96546061 297.11296498 -123.34434803 292.60593959 -130.52197266 287.23706055 C-133.02337946 285.3674829 -135.01122715 283.99625762 -138 283 C-140.53797687 283.49300374 -140.53797687 283.49300374 -143.36328125 284.40625 C-144.46285156 284.73471924 -145.56242188 285.06318848 -146.6953125 285.40161133 C-147.88898438 285.76407959 -149.08265625 286.12654785 -150.3125 286.5 C-235.59861167 311.58773953 -235.59861167 311.58773953 -269.71484375 294.65234375 C-280.77951011 288.41287024 -287.95797094 279.32808498 -291.5715332 267.05957031 C-293.7613202 256.53361984 -292.85114931 244.55117247 -288 235 C-287.57589844 234.1028125 -287.15179688 233.205625 -286.71484375 232.28125 C-277.13816257 213.2879436 -259.02173938 196.90849907 -242.01806641 184.51513672 C-240.40310436 183.30264525 -238.81800123 182.0504226 -237.24365234 180.78564453 C-231.48799215 176.18271511 -225.72949951 172.12913005 -219.2734375 168.5625 C-205.380104 161.33484424 -205.380104 161.33484424 -195.42236328 149.8671875 C-193.69492881 143.32402442 -193.80848526 136.81162375 -194.01269531 130.08886719 C-193.99343532 125.4027631 -193.02789752 121.13049207 -191.8125 116.625 C-191.60061035 115.82465332 -191.3887207 115.02430664 -191.17041016 114.19970703 C-183.88439907 88.08575177 -170.55449385 63.89069207 -151 45 C-150.175 44.175 -149.35 43.35 -148.5 42.5 C-147.675 41.675 -146.85 40.85 -146 40 C-145.33871094 39.26910156 -145.33871094 39.26910156 -144.6640625 38.5234375 C-125.90644844 18.43279503 -98.10225231 6.72475609 -72 0 C-71.31905273 -0.18079102 -70.63810547 -0.36158203 -69.93652344 -0.54785156 C-48.73284194 -5.9046832 -21.10944435 -5.58336777 0 0 Z M-76 34 C-77.32812106 34.46225091 -78.65624602 34.92449061 -79.984375 35.38671875 C-95.06581707 40.86172311 -107.79987433 48.70969792 -120 59 C-121.26650391 60.03640625 -121.26650391 60.03640625 -122.55859375 61.09375 C-128.49371541 66.11340229 -133.26357513 71.85705182 -138 78 C-139.00353516 79.26263672 -139.00353516 79.26263672 -140.02734375 80.55078125 C-148.38089678 91.45175441 -154.85910207 103.91016154 -159 117 C-159.391875 118.0725 -159.78375 119.145 -160.1875 120.25 C-161.14147821 123.47884933 -161.53231314 126.66773115 -162 130 C-162.34627441 131.06968018 -162.69254883 132.13936035 -163.04931641 133.24145508 C-164.08644907 137.34177797 -164.01851323 140.49215137 -163.7109375 144.69921875 C-162.56496177 167.39687987 -162.56496177 167.39687987 -166.74365234 173.58007812 C-171.31740789 177.5938853 -176.72249457 179.74468318 -182.35693359 181.89306641 C-186.42516358 183.59686788 -189.82758647 186.03617958 -193.375 188.625 C-194.67105158 189.535028 -195.96791348 190.44390317 -197.265625 191.3515625 C-197.88759766 191.79274414 -198.50957031 192.23392578 -199.15039062 192.68847656 C-200.9645346 193.97485215 -202.78615627 195.24996793 -204.609375 196.5234375 C-217.46263064 205.54591196 -229.64047492 215.14842116 -241 226 C-241.48629883 226.45906738 -241.97259766 226.91813477 -242.47363281 227.39111328 C-255.47346562 239.53767517 -255.47346562 239.53767517 -260.375 255.9375 C-260.32031774 259.65589374 -260.16104543 260.76346453 -258 263.9375 C-244.57855385 273.16474423 -226.160927 270.67466371 -210.8515625 268.53515625 C-208.11026874 268.2984512 -208.11026874 268.2984512 -207 267 C-204.08523031 266.52919872 -201.17308835 266.09960936 -198.25 265.6875 C-191.55288159 264.68076789 -185.2516326 263.37985663 -178.81640625 261.2265625 C-173.54516021 259.47982496 -168.1665687 258.09193359 -162.8125 256.625 C-154.28273979 254.28239999 -145.86454912 251.7716464 -137.56958008 248.68994141 C-133.69828407 247.30963864 -130.87338181 246.34379536 -127 248 C-125.60794679 249.6179442 -124.28178323 251.2933696 -123 253 C-109.72016779 264.826499 -94.94186335 273.63249962 -78 279 C-76.66260524 279.5315598 -75.32853816 280.07167649 -74 280.625 C-62.44898643 284.86280343 -50.99839343 285.50684597 -38.84277344 285.44604492 C-36.2667578 285.43755523 -33.69298487 285.46637724 -31.1171875 285.49804688 C-17.09883145 285.55777563 -3.8520705 283.80038761 9 278 C11.14295748 277.20058144 13.28876253 276.40875002 15.4375 275.625 C20.78716353 273.57165534 25.29998278 271.23403831 30 268 C30.87785156 267.44828125 31.75570313 266.8965625 32.66015625 266.328125 C51.07552398 254.58499196 65.05212314 239.85183468 76 221 C76.89161137 219.68462828 77.78688679 218.37172476 78.6875 217.0625 C81.57331696 212.4860024 83.14649602 207.41158674 84.875 202.3125 C85.71967148 199.82541176 86.62225995 197.42328845 87.625 195 C91.41419973 185.01029162 93.60248639 173.57920196 92.39453125 162.953125 C90.71090611 145.95682842 90.71090611 145.95682842 94.70068359 140.80322266 C99.38830566 136.97836597 104.8221098 134.62587045 110.34082031 132.23583984 C114.33670022 130.37877557 117.81179896 127.94624926 121.375 125.375 C122.67160552 124.46576143 123.9684763 123.55690099 125.265625 122.6484375 C125.88759766 122.20725586 126.50957031 121.76607422 127.15039062 121.31152344 C128.9645346 120.02514785 130.78615627 118.75003207 132.609375 117.4765625 C145.46389401 108.45320121 157.63327989 98.84574544 169 88 C169.886875 87.16597656 170.77375 86.33195312 171.6875 85.47265625 C179.78726139 77.65688039 187.90603536 69.76857901 188.375 58.0625 C188.33023202 54.25722161 188.18714806 53.25870467 185.875 50.0625 C174.95246165 42.22676597 160.23840523 42.89292581 147.23706055 44.45092773 C143.41164528 45.08426798 139.61412342 45.79933121 135.8125 46.5625 C134.41213047 46.83637088 133.01173938 47.1101316 131.61132812 47.38378906 C114.96784528 50.6805379 98.47870658 54.55009015 82.31640625 59.73828125 C81.58569916 59.97197418 80.85499207 60.20566711 80.10214233 60.44644165 C76.52255099 61.59567965 72.95253768 62.76688988 69.39257812 63.97558594 C68.09644966 64.40198309 66.80023022 64.82810382 65.50390625 65.25390625 C64.36767822 65.63877197 63.2314502 66.0236377 62.06079102 66.42016602 C58.52942804 67.0891448 57.11208354 66.71043016 54 65 C50.98637993 62.67700119 48.36371212 60.38391835 45.75 57.625 C33.68878897 46.11202583 16.95577638 37.51789254 1 33 C-0.15040771 32.67346436 -1.30081543 32.34692871 -2.48608398 32.01049805 C-13.66708619 29.02259045 -24.274832 28.31857893 -35.8125 28.4375 C-36.68985809 28.44142761 -37.56721619 28.44535522 -38.47116089 28.44940186 C-51.55567451 28.53197656 -63.65069372 29.34597039 -76 34 Z " fill="#000000" transform="translate(292,99)"/>
<path d="M0 0 C1.52560547 0.02707031 1.52560547 0.02707031 3.08203125 0.0546875 C9.62687695 0.36591093 14.73716019 1.99792841 20 6 C22.86139572 10.29209357 22.46383655 13.96737343 22 19 C17.16284123 36.73624881 -4.82568649 52.49479749 -19 63 C-20.15797208 63.87574701 -21.31552154 64.75205312 -22.47265625 65.62890625 C-29.59720319 70.98235172 -36.91608615 76.0307445 -44.3125 81 C-45.63459473 81.90794312 -45.63459473 81.90794312 -46.98339844 82.83422852 C-51.32276524 85.766908 -55.5316078 88.33874265 -60.34375 90.421875 C-67.5195401 93.58370234 -67.5195401 93.58370234 -73 99 C-74.94511426 106.43492576 -73.79765524 114.25297594 -73.16113281 121.8125 C-72.93112821 126.36240914 -73.46662241 130.60045981 -74.3125 135.0625 C-74.44906006 135.79090088 -74.58562012 136.51930176 -74.72631836 137.26977539 C-75.60256357 141.62337899 -76.68697526 145.85009437 -78.2578125 150.00390625 C-79.10593765 152.28491652 -79.73141038 154.59092887 -80.375 156.9375 C-84.91819407 172.05057414 -94.70049758 186.25748498 -105 198 C-105.68449219 198.82886719 -106.36898438 199.65773438 -107.07421875 200.51171875 C-120.39715569 216.19879977 -140.71062539 229.83360873 -160.56640625 235.31640625 C-162.91789491 235.97693677 -165.19759097 236.74917097 -167.5 237.5625 C-177.94324949 240.99223271 -187.94598805 241.37262574 -198.85546875 241.37060547 C-201.46682684 241.37494487 -204.07644329 241.41125588 -206.6875 241.44921875 C-221.24730894 241.54727966 -234.43115833 239.29850753 -248 234 C-248.95003906 233.64679688 -249.90007812 233.29359375 -250.87890625 232.9296875 C-263.54813152 227.95051599 -274.6480454 220.78975054 -285 212 C-286.31484375 210.98292969 -286.31484375 210.98292969 -287.65625 209.9453125 C-290 208 -290 208 -291.875 205.1875 C-292.57625 204.465625 -293.2775 203.74375 -294 203 C-298.67259481 203.33696597 -302.74118719 204.47377177 -307.125 206.0625 C-316.16279739 209.22922091 -325.41620862 211.65299409 -334.65673828 214.14477539 C-342.26609978 216.20133147 -342.26609978 216.20133147 -349.7578125 218.640625 C-354.42287426 220.24684265 -359.12454497 220.95567076 -364 221.625 C-369.43338379 221.92720109 -369.43338379 221.92720109 -374 224 C-388.62757995 226.74517596 -408.48376962 229.48801439 -421.75 221.5 C-423.87329188 220.03689131 -424.84025934 219.31948133 -426 217 C-426.82972135 208.27196963 -425.02151564 202.4733574 -419.8125 195.5625 C-409.57187261 183.23616685 -397.86499555 172.50387059 -385 163 C-383.84313759 162.12580985 -382.68689316 161.25080132 -381.53125 160.375 C-367.79974683 150.05375071 -353.39647044 140.62841154 -338.8125 131.5625 C-337.67204224 130.84416992 -337.67204224 130.84416992 -336.50854492 130.11132812 C-334.71026539 129.00980663 -332.85936726 127.99494335 -331 127 C-330.34 127.33 -329.68 127.66 -329 128 C-328.54296875 130.30859375 -328.54296875 130.30859375 -328.1875 133.4375 C-325.50297706 152.16768296 -318.83939756 168.31321165 -308.25 183.9609375 C-307 186 -307 186 -307 188 C-297.41986892 184.69327177 -287.93352006 181.24609284 -278.54296875 177.43359375 C-271.73667828 174.67956001 -264.88238052 172.04676198 -257.984375 169.53125 C-251.21745324 167.05366941 -244.68732522 164.5048288 -238.29296875 161.15234375 C-235.08774963 159.54154368 -231.77829927 158.26462347 -228.4375 156.96484375 C-224.56937957 155.43371275 -220.79082644 153.7115548 -217 152 C-215.50043049 151.33236557 -214.00042862 150.66570143 -212.5 150 C-211.74976563 149.66613281 -210.99953125 149.33226562 -210.2265625 148.98828125 C-208.80598555 148.35774446 -207.38422568 147.72986146 -205.9609375 147.10546875 C-180.94555895 136.09682838 -156.24336645 124.23383194 -132.61279297 110.49804688 C-129.22592753 108.55618495 -125.79675826 106.6988185 -122.36181641 104.84375 C-110.95465334 98.67989515 -99.95363022 91.93240772 -89 85 C-88.34451172 84.5860498 -87.68902344 84.17209961 -87.01367188 83.74560547 C-84.00161951 81.84199499 -80.99566812 79.92929445 -78 78 C-86.00240934 55.87188893 -86.00240934 55.87188893 -99.33203125 36.7734375 C-102.99281542 32.88117518 -106.0411277 28.43830845 -109 24 C-82.15021347 14.62450761 -55.02515669 7.00839018 -27 2 C-25.97430908 1.81236084 -24.94861816 1.62472168 -23.8918457 1.43139648 C-15.75912412 -0.00408818 -8.26164006 -0.26794508 0 0 Z " fill="#01137D" transform="translate(458,143)"/>
<path d="M0 0 C2.21679688 0.90234375 2.21679688 0.90234375 4 2 C4.43642518 17.89482888 4.45071251 33.90868289 -1.2578125 49.00390625 C-2.10593765 51.28491652 -2.73141038 53.59092887 -3.375 55.9375 C-7.91819407 71.05057414 -17.70049758 85.25748498 -28 97 C-28.68449219 97.82886719 -29.36898437 98.65773438 -30.07421875 99.51171875 C-43.39715569 115.19879977 -63.71062539 128.83360873 -83.56640625 134.31640625 C-85.91789491 134.97693677 -88.19759097 135.74917097 -90.5 136.5625 C-100.94324949 139.99223271 -110.94598805 140.37262574 -121.85546875 140.37060547 C-124.46682684 140.37494487 -127.07644329 140.41125588 -129.6875 140.44921875 C-144.24730894 140.54727966 -157.43115833 138.29850753 -171 133 C-172.42505859 132.47019531 -172.42505859 132.47019531 -173.87890625 131.9296875 C-186.54813152 126.95051599 -197.6480454 119.78975054 -208 111 C-208.86625 110.31679688 -209.7325 109.63359375 -210.625 108.9296875 C-213.21498636 106.82532358 -215.14820012 104.77769982 -217 102 C-216.67 101.01 -216.34 100.02 -216 99 C-213.50761463 98.04323594 -211.12625633 97.26805692 -208.5625 96.5625 C-204.01001369 95.27110704 -199.5897238 93.88112549 -195.20703125 92.0859375 C-189.60184982 89.79161095 -183.88399403 87.92908217 -178.125 86.0625 C-169.91515907 83.36154256 -161.9171547 80.47299186 -154 77 C-151.06759358 75.779228 -148.12741277 74.57756297 -145.1875 73.375 C-132.9586277 68.36321282 -120.96572041 62.89908098 -108.96435547 57.36621094 C-107.15420914 56.53195144 -105.34348163 55.69894964 -103.53173828 54.86816406 C-93.15490306 50.10630139 -83.02592336 44.9640134 -72.95898438 39.57958984 C-70.14595268 38.07791368 -67.32923711 36.58343792 -64.51118469 35.09121704 C-61.85598171 33.68483585 -59.20209266 32.27598689 -56.5484314 30.86669922 C-55.24623015 30.17544698 -53.94369043 29.48483192 -52.64077759 28.79492188 C-45.22333489 24.86490898 -37.88707857 20.83694081 -30.67456055 16.53735352 C-26.96778556 14.40667692 -23.14346546 12.55755074 -19.296875 10.6953125 C-16.74341129 9.38227547 -14.29389818 8.01825042 -11.828125 6.5546875 C-11.11108398 6.13300293 -10.39404297 5.71131836 -9.65527344 5.27685547 C-8.23899269 4.43780378 -6.83041813 3.5855797 -5.43066406 2.71923828 C-3.46875 1.5625 -3.46875 1.5625 0 0 Z " fill="#B000FC" transform="translate(381,244)"/>
<path d="M0 0 C0.99 0.33 1.98 0.66 3 1 C3.66796875 2.94140625 3.66796875 2.94140625 4.1875 5.5625 C7.00665177 16.91290686 13.18933788 27.34931649 19.84765625 36.86328125 C20.22792969 37.56839844 20.60820312 38.27351563 21 39 C20.67 39.99 20.34 40.98 20 42 C17.96899414 42.91967773 17.96899414 42.91967773 15.28515625 43.68359375 C14.29829834 43.96968506 13.31144043 44.25577637 12.29467773 44.55053711 C11.22805908 44.84323486 10.16144043 45.13593262 9.0625 45.4375 C7.96945557 45.74244385 6.87641113 46.0473877 5.75024414 46.36157227 C2.50412864 47.25642167 -0.74753656 48.12856588 -4 49 C-4.8343457 49.23460937 -5.66869141 49.46921875 -6.52832031 49.7109375 C-15.83921258 52.31718294 -24.69397672 53.35974987 -34.375 53.4375 C-35.86592163 53.4528479 -35.86592163 53.4528479 -37.38696289 53.46850586 C-38.31887451 53.45698486 -39.25078613 53.44546387 -40.2109375 53.43359375 C-41.45302979 53.41897095 -41.45302979 53.41897095 -42.72021484 53.40405273 C-45.54864698 52.90276175 -46.93863561 51.98123557 -49 50 C-49.69914708 46.43434987 -49.65804056 44.11866896 -47.7890625 40.94140625 C-46.2626199 38.89194398 -44.65866141 36.94335703 -43 35 C-42.38125 34.154375 -41.7625 33.30875 -41.125 32.4375 C-31.30287183 21.17094122 -17.68701413 12.19553322 -5.5625 3.5625 C-4.55316406 2.84191406 -3.54382813 2.12132812 -2.50390625 1.37890625 C-1.67761719 0.92386719 -0.85132813 0.46882813 0 0 Z " fill="#000002" transform="translate(130,290)"/>
<path d="M0 0 C1.05896484 -0.020625 2.11792969 -0.04125 3.20898438 -0.0625 C4.73942383 -0.07023438 4.73942383 -0.07023438 6.30078125 -0.078125 C7.70517456 -0.09214355 7.70517456 -0.09214355 9.13793945 -0.10644531 C12.16847947 0.31724409 13.51993351 1.11258609 15.6875 3.25 C16.38664708 6.81565013 16.34554056 9.13133104 14.4765625 12.30859375 C12.9501199 14.35805602 11.34616141 16.30664297 9.6875 18.25 C8.759375 19.5184375 8.759375 19.5184375 7.8125 20.8125 C2.37127757 27.0539022 -4.47554966 32.07000765 -11 37.125 C-11.77585449 37.72779785 -12.55170898 38.3305957 -13.35107422 38.95166016 C-19.84596025 43.96223005 -26.49118991 48.69442542 -33.3125 53.25 C-36.69167054 50.58223379 -37.61453964 47.05426301 -38.9375 43.125 C-41.18188056 36.80431535 -43.85543865 30.86186894 -47 24.9375 C-47.38043457 24.21481934 -47.76086914 23.49213867 -48.15283203 22.74755859 C-50.15910362 18.94940227 -50.15910362 18.94940227 -52.94067383 15.72192383 C-54.3125 14.25 -54.3125 14.25 -54.3125 11.25 C-41.46560589 7.26376611 -28.8415034 3.62808105 -15.50390625 1.7578125 C-4.59584265 0.0221353 -4.59584265 0.0221353 0 0 Z " fill="#000001" transform="translate(415.3125,168.75)"/>
</svg>
