{
	"asset":{
		"copyright":"Abi ",
		"generator":"Khronos glTF Blender I/O v4.3.47",
		"version":"2.0"
	},
	"extensionsUsed":[
		"KHR_materials_unlit"
	],
	"scene":0,
	"scenes":[
		{
			"name":"Scene",
			"nodes":[
				0,
				1,
				2,
				3,
				4,
				5,
				6,
				7
			]
		}
	],
	"nodes":[
		{
			"mesh":0,
			"name":"Abhishek_K_HW2",
			"rotation":[
				-0.70710688829422,
				0,
				0,
				0.7071066498756409
			]
		},
		{
			"mesh":1,
			"name":"Plane",
			"scale":[
				1.0024898052215576,
				1,
				1.0123860836029053
			]
		},
		{
			"mesh":2,
			"name":"Plane.001",
			"scale":[
				0.9011821746826172,
				1,
				1
			],
			"translation":[
				-0.12325877696275711,
				0,
				0
			]
		},
		{
			"mesh":3,
			"name":"Cube",
			"translation":[
				0,
				0.8313130140304565,
				0
			]
		},
		{
			"mesh":4,
			"name":"Cube.001",
			"translation":[
				0,
				0.8313130140304565,
				0
			]
		},
		{
			"mesh":5,
			"name":"Cube.002",
			"translation":[
				0,
				0.8313130140304565,
				0
			]
		},
		{
			"mesh":6,
			"name":"Cube.003",
			"translation":[
				0,
				0.8313130140304565,
				0
			]
		},
		{
			"mesh":7,
			"name":"Plane.002"
		}
	],
	"materials":[
		{
			"doubleSided":true,
			"name":"Material.001",
			"pbrMetallicRoughness":{
				"baseColorFactor":[
					0.004073097370564938,
					0,
					0.012625215575098991,
					1
				],
				"metallicFactor":0.4178895354270935,
				"roughnessFactor":0.2499997317790985
			}
		},
		{
			"doubleSided":true,
			"name":"Material.003",
			"pbrMetallicRoughness":{
				"baseColorFactor":[
					0.07618489861488342,
					0.025186825543642044,
					0.15292617678642273,
					1
				],
				"metallicFactor":0,
				"roughnessFactor":0.5
			}
		},
		{
			"doubleSided":true,
			"name":"Material.004",
			"pbrMetallicRoughness":{
				"baseColorFactor":[
					0.3185451030731201,
					0.13286848366260529,
					0,
					1
				],
				"metallicFactor":0,
				"roughnessFactor":0.5
			}
		},
		{
			"doubleSided":true,
			"name":"Material.002",
			"pbrMetallicRoughness":{
				"baseColorFactor":[
					0.07618489861488342,
					0.025186825543642044,
					0.15292617678642273,
					1
				],
				"metallicFactor":0,
				"roughnessFactor":0.5
			}
		},
		{
			"doubleSided":true,
			"emissiveFactor":[
				0.800000011920929,
				0.800000011920929,
				0.800000011920929
			],
			"name":"Material.007",
			"pbrMetallicRoughness":{
				"baseColorFactor":[
					0,
					0,
					0,
					1
				]
			}
		},
		{
			"doubleSided":true,
			"name":"Material.005",
			"pbrMetallicRoughness":{
				"baseColorFactor":[
					0.3185451030731201,
					0.13286848366260529,
					0,
					1
				],
				"metallicFactor":0,
				"roughnessFactor":0.5
			}
		},
		{
			"doubleSided":true,
			"extensions":{
				"KHR_materials_unlit":{}
			},
			"name":"Material.006",
			"pbrMetallicRoughness":{
				"baseColorTexture":{
					"index":0
				},
				"metallicFactor":0,
				"roughnessFactor":0.9
			}
		}
	],
	"meshes":[
		{
			"name":"Mesh_0",
			"primitives":[
				{
					"attributes":{
						"POSITION":0,
						"NORMAL":1,
						"TEXCOORD_0":2
					},
					"indices":3,
					"material":0
				}
			]
		},
		{
			"name":"Plane",
			"primitives":[
				{
					"attributes":{
						"POSITION":4,
						"NORMAL":5,
						"TEXCOORD_0":6
					},
					"indices":7,
					"material":1
				}
			]
		},
		{
			"name":"Plane.001",
			"primitives":[
				{
					"attributes":{
						"POSITION":8,
						"NORMAL":9,
						"TEXCOORD_0":10
					},
					"indices":11,
					"material":2
				}
			]
		},
		{
			"name":"Cube.001",
			"primitives":[
				{
					"attributes":{
						"POSITION":12,
						"NORMAL":13,
						"TEXCOORD_0":14
					},
					"indices":15,
					"material":3
				}
			]
		},
		{
			"name":"Cube.002",
			"primitives":[
				{
					"attributes":{
						"POSITION":16,
						"NORMAL":17,
						"TEXCOORD_0":18
					},
					"indices":19,
					"material":4
				}
			]
		},
		{
			"name":"Cube.005",
			"primitives":[
				{
					"attributes":{
						"POSITION":20,
						"NORMAL":21,
						"TEXCOORD_0":22
					},
					"indices":23,
					"material":5
				}
			]
		},
		{
			"name":"Cube.007",
			"primitives":[
				{
					"attributes":{
						"POSITION":24,
						"NORMAL":25,
						"TEXCOORD_0":26
					},
					"indices":27,
					"material":6
				}
			]
		},
		{
			"name":"Plane.002",
			"primitives":[
				{
					"attributes":{
						"POSITION":28,
						"NORMAL":29,
						"TEXCOORD_0":30
					},
					"indices":31
				}
			]
		}
	],
	"textures":[
		{
			"sampler":0,
			"source":0
		}
	],
	"images":[
		{
			"mimeType":"image/png",
			"name":"Pro red",
			"uri":"Pro%20red.png"
		}
	],
	"accessors":[
		{
			"bufferView":0,
			"componentType":5126,
			"count":1479,
			"max":[
				-0.1105087548494339,
				-0.27370548248291016,
				0.2910977005958557
			],
			"min":[
				-0.5450538396835327,
				-0.6621185541152954,
				0.022802283987402916
			],
			"type":"VEC3"
		},
		{
			"bufferView":1,
			"componentType":5126,
			"count":1479,
			"type":"VEC3"
		},
		{
			"bufferView":2,
			"componentType":5126,
			"count":1479,
			"type":"VEC2"
		},
		{
			"bufferView":3,
			"componentType":5123,
			"count":3096,
			"type":"SCALAR"
		},
		{
			"bufferView":4,
			"componentType":5126,
			"count":96,
			"max":[
				1,
				0,
				1
			],
			"min":[
				-1,
				-0.20000000298023224,
				-1
			],
			"type":"VEC3"
		},
		{
			"bufferView":5,
			"componentType":5126,
			"count":96,
			"type":"VEC3"
		},
		{
			"bufferView":6,
			"componentType":5126,
			"count":96,
			"type":"VEC2"
		},
		{
			"bufferView":7,
			"componentType":5123,
			"count":132,
			"type":"SCALAR"
		},
		{
			"bufferView":8,
			"componentType":5126,
			"count":480,
			"max":[
				1.0482761859893799,
				0.026143435388803482,
				1
			],
			"min":[
				-0.9393472075462341,
				-0.17385657131671906,
				-1
			],
			"type":"VEC3"
		},
		{
			"bufferView":9,
			"componentType":5126,
			"count":480,
			"type":"VEC3"
		},
		{
			"bufferView":10,
			"componentType":5126,
			"count":480,
			"type":"VEC2"
		},
		{
			"bufferView":11,
			"componentType":5123,
			"count":660,
			"type":"SCALAR"
		},
		{
			"bufferView":12,
			"componentType":5126,
			"count":1108,
			"max":[
				1.032746434211731,
				1.0325813293457031,
				1.0326321125030518
			],
			"min":[
				-1.0327774286270142,
				-1.0325814485549927,
				-1.0327930450439453
			],
			"type":"VEC3"
		},
		{
			"bufferView":13,
			"componentType":5126,
			"count":1108,
			"type":"VEC3"
		},
		{
			"bufferView":14,
			"componentType":5126,
			"count":1108,
			"type":"VEC2"
		},
		{
			"bufferView":15,
			"componentType":5123,
			"count":1620,
			"type":"SCALAR"
		},
		{
			"bufferView":16,
			"componentType":5126,
			"count":196,
			"max":[
				0.9177386164665222,
				0.21687830984592438,
				0.6209235191345215
			],
			"min":[
				0.8673189282417297,
				-0.2862095534801483,
				-0.5347675085067749
			],
			"type":"VEC3"
		},
		{
			"bufferView":17,
			"componentType":5126,
			"count":196,
			"type":"VEC3"
		},
		{
			"bufferView":18,
			"componentType":5126,
			"count":196,
			"type":"VEC2"
		},
		{
			"bufferView":19,
			"componentType":5123,
			"count":288,
			"type":"SCALAR"
		},
		{
			"bufferView":20,
			"componentType":5126,
			"count":176,
			"max":[
				0.9198005199432373,
				-0.39124518632888794,
				0.6802374124526978
			],
			"min":[
				0.7291011810302734,
				-0.4224752187728882,
				-0.6080281734466553
			],
			"type":"VEC3"
		},
		{
			"bufferView":21,
			"componentType":5126,
			"count":176,
			"type":"VEC3"
		},
		{
			"bufferView":22,
			"componentType":5126,
			"count":176,
			"type":"VEC2"
		},
		{
			"bufferView":23,
			"componentType":5123,
			"count":264,
			"type":"SCALAR"
		},
		{
			"bufferView":24,
			"componentType":5126,
			"count":192,
			"max":[
				0.6546664237976074,
				0.436539888381958,
				-0.8507017493247986
			],
			"min":[
				-0.7289314270019531,
				-0.436539888381958,
				-0.9204532504081726
			],
			"type":"VEC3"
		},
		{
			"bufferView":25,
			"componentType":5126,
			"count":192,
			"type":"VEC3"
		},
		{
			"bufferView":26,
			"componentType":5126,
			"count":192,
			"type":"VEC2"
		},
		{
			"bufferView":27,
			"componentType":5123,
			"count":264,
			"type":"SCALAR"
		},
		{
			"bufferView":28,
			"componentType":5126,
			"count":24,
			"max":[
				4.4213972091674805,
				-0.1821494996547699,
				4.4213972091674805
			],
			"min":[
				-4.4213972091674805,
				-0.23214949667453766,
				-4.4213972091674805
			],
			"type":"VEC3"
		},
		{
			"bufferView":29,
			"componentType":5126,
			"count":24,
			"type":"VEC3"
		},
		{
			"bufferView":30,
			"componentType":5126,
			"count":24,
			"type":"VEC2"
		},
		{
			"bufferView":31,
			"componentType":5123,
			"count":36,
			"type":"SCALAR"
		}
	],
	"bufferViews":[
		{
			"buffer":0,
			"byteLength":17748,
			"byteOffset":0,
			"target":34962
		},
		{
			"buffer":0,
			"byteLength":17748,
			"byteOffset":17748,
			"target":34962
		},
		{
			"buffer":0,
			"byteLength":11832,
			"byteOffset":35496,
			"target":34962
		},
		{
			"buffer":0,
			"byteLength":6192,
			"byteOffset":47328,
			"target":34963
		},
		{
			"buffer":0,
			"byteLength":1152,
			"byteOffset":53520,
			"target":34962
		},
		{
			"buffer":0,
			"byteLength":1152,
			"byteOffset":54672,
			"target":34962
		},
		{
			"buffer":0,
			"byteLength":768,
			"byteOffset":55824,
			"target":34962
		},
		{
			"buffer":0,
			"byteLength":264,
			"byteOffset":56592,
			"target":34963
		},
		{
			"buffer":0,
			"byteLength":5760,
			"byteOffset":56856,
			"target":34962
		},
		{
			"buffer":0,
			"byteLength":5760,
			"byteOffset":62616,
			"target":34962
		},
		{
			"buffer":0,
			"byteLength":3840,
			"byteOffset":68376,
			"target":34962
		},
		{
			"buffer":0,
			"byteLength":1320,
			"byteOffset":72216,
			"target":34963
		},
		{
			"buffer":0,
			"byteLength":13296,
			"byteOffset":73536,
			"target":34962
		},
		{
			"buffer":0,
			"byteLength":13296,
			"byteOffset":86832,
			"target":34962
		},
		{
			"buffer":0,
			"byteLength":8864,
			"byteOffset":100128,
			"target":34962
		},
		{
			"buffer":0,
			"byteLength":3240,
			"byteOffset":108992,
			"target":34963
		},
		{
			"buffer":0,
			"byteLength":2352,
			"byteOffset":112232,
			"target":34962
		},
		{
			"buffer":0,
			"byteLength":2352,
			"byteOffset":114584,
			"target":34962
		},
		{
			"buffer":0,
			"byteLength":1568,
			"byteOffset":116936,
			"target":34962
		},
		{
			"buffer":0,
			"byteLength":576,
			"byteOffset":118504,
			"target":34963
		},
		{
			"buffer":0,
			"byteLength":2112,
			"byteOffset":119080,
			"target":34962
		},
		{
			"buffer":0,
			"byteLength":2112,
			"byteOffset":121192,
			"target":34962
		},
		{
			"buffer":0,
			"byteLength":1408,
			"byteOffset":123304,
			"target":34962
		},
		{
			"buffer":0,
			"byteLength":528,
			"byteOffset":124712,
			"target":34963
		},
		{
			"buffer":0,
			"byteLength":2304,
			"byteOffset":125240,
			"target":34962
		},
		{
			"buffer":0,
			"byteLength":2304,
			"byteOffset":127544,
			"target":34962
		},
		{
			"buffer":0,
			"byteLength":1536,
			"byteOffset":129848,
			"target":34962
		},
		{
			"buffer":0,
			"byteLength":528,
			"byteOffset":131384,
			"target":34963
		},
		{
			"buffer":0,
			"byteLength":288,
			"byteOffset":131912,
			"target":34962
		},
		{
			"buffer":0,
			"byteLength":288,
			"byteOffset":132200,
			"target":34962
		},
		{
			"buffer":0,
			"byteLength":192,
			"byteOffset":132488,
			"target":34962
		},
		{
			"buffer":0,
			"byteLength":72,
			"byteOffset":132680,
			"target":34963
		}
	],
	"samplers":[
		{
			"magFilter":9729,
			"minFilter":9987
		}
	],
	"buffers":[
		{
			"byteLength":132752,
			"uri":"home.bin"
		}
	]
}
